<svg xmlns="http://www.w3.org/2000/svg" width="880" height="312" viewBox="0 0 880 312" role="img">
<style>
text{font-family:ui-monospace,SFMono-Regular,"SF Mono",Menlo,Consolas,"Liberation Mono",monospace}
.cjk{font-family:-apple-system,BlinkMacSystemFont,"Segoe UI","PingFang SC","Hiragino Sans GB","Microsoft YaHei","Noto Sans CJK SC","Noto Sans SC",Helvetica,Arial,sans-serif}
.kicker{font-size:10.5px;letter-spacing:2px;font-weight:700;fill:#0969da}
.label{font-size:10px;letter-spacing:1.4px;font-weight:600;fill:#8c959f}
.mono{font-size:12px;fill:#1f2328}
.muted{font-size:11.5px;fill:#57606a}
.small{font-size:10px;fill:#57606a}
.name{font-size:58px;font-weight:700;letter-spacing:-1px;fill:#1f2328}
.handle{font-size:22px;font-weight:600;fill:#57606a}
.role{font-size:15px;font-weight:600;fill:#1f2328}
.stage{font-size:13px;font-weight:700;fill:#1f2328}
.bullet{font-size:10.5px;fill:#57606a}
.big{font-size:26px;font-weight:700;letter-spacing:-0.5px;fill:#1f2328}
</style>
<defs>
<pattern id="grid-id-light" width="24" height="24" patternUnits="userSpaceOnUse"><path d="M24 0H0V24" fill="none" stroke="#edf1f5" stroke-width="0.8"/></pattern>
<clipPath id="clip-id-light"><rect x="0.5" y="0.5" width="879" height="311" rx="10"/></clipPath>
<marker id="arr-id-light" viewBox="0 0 8 8" refX="7" refY="4" markerWidth="7" markerHeight="7" orient="auto"><path d="M0 0L8 4L0 8z" fill="#0969da"/></marker>
<marker id="arl-id-light" viewBox="0 0 8 8" refX="1" refY="4" markerWidth="7" markerHeight="7" orient="auto"><path d="M8 0L0 4L8 8z" fill="#0969da"/></marker>
</defs>
<rect x="0.5" y="0.5" width="879" height="311" rx="10" fill="#ffffff" stroke="#d0d7de"/>
<rect x="0.5" y="0.5" width="879" height="311" rx="10" fill="url(#grid-id-light)" clip-path="url(#clip-id-light)"/>
<path d="M20 30v-10h10" fill="none" stroke="#8c959f" stroke-width="1"/>
<path d="M860 30v-10h-10" fill="none" stroke="#8c959f" stroke-width="1"/>
<path d="M20 282v10h10" fill="none" stroke="#8c959f" stroke-width="1"/>
<path d="M860 282v10h-10" fill="none" stroke="#8c959f" stroke-width="1"/>
<text x="32" y="40" class="kicker">01 · IDENTITY</text>
<line x1="32" y1="49" x2="848" y2="49" stroke="#e6eaef"/>
<text x="32" y="118" class="name cjk">绮莱</text>
<text x="164" y="118" class="handle">qilai</text>
<text x="32" y="152" class="role cjk">软件工程师 · AI 应用工程化落地 · 全栈系统交付</text>
<text x="32" y="174" class="label" fill="#0969da">AI APPLICATION ENGINEERING  ·  FULL-STACK DELIVERY  ·  FDE</text>
<text x="32" y="208" class="label">TIMEZONE</text>
<text x="128" y="208" class="mono cjk">GMT+8 · 覆盖亚太时段，可配合欧美团队部分重叠时间</text>
<text x="32" y="228" class="label">OPEN TO</text>
<text x="128" y="228" class="mono cjk">远程全职 · 合同制 · 技术咨询</text>
<text x="32" y="248" class="label">LANGUAGE</text>
<text x="128" y="248" class="mono cjk">中文（母语） · 英文（工作语言）</text>
<text x="32" y="268" class="label">CONTACT</text>
<text x="128" y="268" class="mono" fill="#0969da">wwtvn1937@gmail.com</text>
<text x="500" y="66" class="label">SCHEMATIC · 生产形态</text>
<rect x="500.0" y="96.0" width="56.0" height="28.0" rx="5" fill="#f6f8fa" stroke="#d0d7de"/><text x="528.0" y="114.0" class="mono" font-size="10.5px" text-anchor="middle">request</text>
<rect x="572.0" y="96.0" width="56.0" height="28.0" rx="5" fill="#f6f8fa" stroke="#d0d7de"/><text x="600.0" y="114.0" class="mono" font-size="10.5px" text-anchor="middle">api</text>
<rect x="644.0" y="96.0" width="56.0" height="28.0" rx="5" fill="#f6f8fa" stroke="#d0d7de"/><text x="672.0" y="114.0" class="mono" font-size="10.5px" text-anchor="middle">queue</text>
<rect x="716.0" y="96.0" width="56.0" height="28.0" rx="5" fill="#f6f8fa" stroke="#d0d7de"/><text x="744.0" y="114.0" class="mono" font-size="10.5px" text-anchor="middle">worker</text>
<rect x="788.0" y="96.0" width="56.0" height="28.0" rx="5" fill="#f6f8fa" stroke="#d0d7de"/><text x="816.0" y="114.0" class="mono" font-size="10.5px" text-anchor="middle">llm+tools</text>
<line x1="556.0" y1="110.0" x2="571.0" y2="110.0" stroke="#0969da" stroke-width="1.2" marker-end="url(#arr-id-light)"/>
<line x1="628.0" y1="110.0" x2="643.0" y2="110.0" stroke="#0969da" stroke-width="1.2" marker-end="url(#arr-id-light)"/>
<line x1="700.0" y1="110.0" x2="715.0" y2="110.0" stroke="#0969da" stroke-width="1.2" marker-end="url(#arr-id-light)"/>
<line x1="773" y1="110.0" x2="787" y2="110.0" stroke="#0969da" stroke-width="1.2" marker-start="url(#arl-id-light)" marker-end="url(#arr-id-light)"/>
<path d="M744.0 96v-12H672.0v11" fill="none" stroke="#0969da" stroke-width="1.2" stroke-dasharray="3 3" marker-end="url(#arr-id-light)"/>
<text x="708.0" y="78" class="small" text-anchor="middle">retry · idempotent</text>
<rect x="644.0" y="156.0" width="128.0" height="26.0" rx="5" fill="#f6f8fa" stroke="#d0d7de"/><text x="708.0" y="173.0" class="mono" font-size="10.5px" text-anchor="middle">state · postgres / redis</text>
<line x1="744.0" y1="124.0" x2="744.0" y2="155.0" stroke="#0969da" stroke-width="1.2" marker-end="url(#arr-id-light)"/>
<line x1="672.0" y1="124.0" x2="672.0" y2="155.0" stroke="#0969da" stroke-width="1.2" stroke-dasharray="3 3" marker-end="url(#arr-id-light)"/>
<line x1="500" y1="200" x2="844" y2="200" stroke="#1a7f37" stroke-width="1.2" stroke-dasharray="2 4"/>
<text x="500" y="214" class="small">structured logs · metrics · alerts · human takeover</text>
<rect x="472" y="274" width="376" height="26" rx="4" fill="#f6f8fa" stroke="#d0d7de"/>
<text x="481" y="285" class="label" font-size="8.5px">SHEET</text>
<text x="481" y="296" class="mono" font-size="10.5px">01 / 03</text>
<line x1="562" y1="274" x2="562" y2="300" stroke="#d0d7de"/>
<text x="571" y="285" class="label" font-size="8.5px">REV</text>
<text x="571" y="296" class="mono" font-size="10.5px">2026-09-03</text>
<line x1="680" y1="274" x2="680" y2="300" stroke="#d0d7de"/>
<text x="689" y="285" class="label" font-size="8.5px">ID</text>
<text x="689" y="296" class="mono" font-size="10.5px">github.com/qilaidev</text>
<text x="32" y="292" class="muted cjk">不追新，追稳 · 让 AI 在生产环境中存活</text>
</svg>
